# xmcd
#
# Track frame offsets:
#	150
#	31435
#	47430
#	70272
#	94687
#	114452
#	144597
#	167760
#	189387
#	211082
#
# Disc length: 3048 seconds
#
# Revision: 1
# Processed by: cddbd v1.5.2PL0 Copyright (c) Steve Scherf et al.
# Submitted via: EZCDAudioConverter 8.0.2.1
#
DISCID=830be60a
DTITLE=Various Artist - Khiêu Vũ Bebop Rumba Chachacha
DYEAR=1990
DGENRE=Traditional Country
TTITLE0=Kiều Nga - Ta hãy yêu nhau
TTITLE1=Carol Kim - Hỡi nàng Carol
TTITLE2=Elvis Phương - Papa
TTITLE3=Ngọc Lan - Một đời yêu anh
TTITLE4=Kiều Nga - Em đã yêu
TTITLE5=Trung Hành - Trọn tình yêu nhau
TTITLE6=Ngọc Lan - Tình yêu đêm say
TTITLE7=Elvis Phương - Sóng tình
TTITLE8=Minh Xuân - Tình yêu trong tim
TTITLE9=Công Thành - Yêu người xa xưa
EXTD=
EXTT0=
EXTT1=
EXTT2=
EXTT3=
EXTT4=
EXTT5=
EXTT6=
EXTT7=
EXTT8=
EXTT9=
PLAYORDER=
